<?xml version="1.0" standalone="no"?>
<!DOCTYPE svg PUBLIC "-//W3C//DTD SVG 20010904//EN"
 "http://www.w3.org/TR/2001/REC-SVG-20010904/DTD/svg10.dtd">
<svg version="1.0" xmlns="http://www.w3.org/2000/svg"
 width="700.000000pt" height="700.000000pt" viewBox="0 0 700.000000 700.000000"
 preserveAspectRatio="xMidYMid meet">
<metadata>
Created by potrace 1.14, written by Peter Selinger 2001-2017
</metadata>
<g transform="translate(0.000000,700.000000) scale(0.100000,-0.100000)"
fill="#000000" stroke="none">
<path d="M3365 4738 c-3 -7 -4 -546 -3 -1198 l3 -1185 133 -3 132 -3 0 1201 0
1200 -130 0 c-95 0 -132 -3 -135 -12z"/>
<path d="M5422 3887 l-503 -312 3 -129 3 -129 495 -308 c272 -170 500 -309
505 -309 9 0 39 44 128 180 l17 27 -446 268 c-365 219 -443 270 -432 280 7 7
202 126 433 265 231 138 425 257 432 263 9 9 -3 35 -52 112 -35 55 -68 101
-72 101 -4 1 -234 -138 -511 -309z"/>
<path d="M1180 3699 c-64 -13 -98 -28 -152 -66 -50 -36 -136 -144 -187 -234
l-31 -56 93 -45 92 -45 37 57 c75 114 164 171 241 155 43 -9 77 -31 188 -120
136 -109 192 -135 294 -135 102 0 166 19 230 68 56 42 139 147 185 234 l31 58
-91 45 -92 44 -50 -75 c-101 -150 -213 -180 -327 -86 -147 122 -182 147 -236
172 -68 32 -156 43 -225 29z"/>
</g>
</svg>
