<svg width="323" height="179" viewBox="0 0 323 179" fill="none" xmlns="http://www.w3.org/2000/svg">
<rect width="323" height="179" fill="#31115B"/>
<path d="M92.7491 115.014L92.7491 64.1659L136.785 89.5901L92.7491 115.014Z" stroke="url(#paint0_linear_18_10)" stroke-width="2.55281"/>
<path d="M72.635 62.514L120.5 90.149L72.635 117.784L72.635 62.514Z" fill="url(#paint1_linear_18_10)"/>
<path d="M164.44 94.5773H156.058L154.367 99.9753H151.737L158.627 78.7985H162.041L168.93 99.9753H166.131L164.44 94.5773ZM156.75 92.3627H163.748L160.272 81.0438L156.75 92.3627ZM175.716 99.9753V83.7813H177.915L178.115 86.0266C178.771 85.1961 179.591 84.5605 180.576 84.1196C181.57 83.6685 182.534 83.4429 183.467 83.4429C185.056 83.4429 186.21 83.8633 186.927 84.704C187.655 85.5447 188.019 86.7135 188.019 88.2104V99.9753H185.435V90.1174C185.435 89.0101 185.374 88.1181 185.251 87.4415C185.128 86.7545 184.872 86.2573 184.482 85.9497C184.092 85.6319 183.487 85.473 182.667 85.473C182.032 85.473 181.432 85.6114 180.868 85.8882C180.314 86.165 179.817 86.5136 179.376 86.934C178.946 87.3441 178.587 87.7593 178.3 88.1797V99.9753H175.716ZM205.432 83.7813V97.9299H209.999V99.9753H197.85V97.9299H202.848V85.8267H198.003V83.7813H205.432ZM203.371 76.1994C203.945 76.1994 204.401 76.3737 204.739 76.7223C205.088 77.0709 205.262 77.4964 205.262 77.9988C205.262 78.5216 205.088 78.9625 204.739 79.3214C204.401 79.6699 203.945 79.8442 203.371 79.8442C202.827 79.8442 202.381 79.6699 202.033 79.3214C201.684 78.9625 201.51 78.5216 201.51 77.9988C201.51 77.4964 201.684 77.0709 202.033 76.7223C202.381 76.3737 202.827 76.1994 203.371 76.1994ZM225.305 100.329C223.633 100.329 222.177 99.9241 220.937 99.1141C219.707 98.3042 218.753 97.0892 218.076 95.4693C217.4 93.8494 217.061 91.8193 217.061 89.3792C217.061 87.5542 217.302 85.96 217.784 84.5963C218.276 83.2327 218.938 82.0947 219.768 81.1822C220.609 80.2697 221.557 79.5879 222.613 79.1368C223.679 78.6857 224.782 78.4601 225.92 78.4601C227.304 78.4601 228.452 78.6601 229.365 79.0599C230.277 79.4495 231.149 80.0237 231.979 80.7824L230.364 82.4587C229.718 81.8538 229.036 81.4078 228.319 81.1207C227.611 80.8336 226.817 80.6901 225.935 80.6901C225.166 80.6901 224.423 80.8387 223.705 81.1361C222.987 81.4334 222.342 81.9204 221.767 82.5971C221.203 83.2635 220.752 84.1504 220.414 85.2576C220.086 86.3649 219.922 87.7388 219.922 89.3792C219.922 91.4195 220.132 93.0804 220.552 94.362C220.983 95.6436 221.614 96.5868 222.444 97.1917C223.285 97.7864 224.32 98.0837 225.551 98.0837C226.289 98.0837 226.986 97.9966 227.642 97.8223C228.309 97.648 228.954 97.3968 229.58 97.0687V90.6095H225.412L225.089 88.395H232.225V98.4836C231.272 98.9962 230.257 99.4319 229.18 99.7908C228.103 100.15 226.812 100.329 225.305 100.329ZM242.302 92.7933C242.353 94.0442 242.594 95.0694 243.024 95.8691C243.455 96.6586 244.024 97.243 244.732 97.6223C245.439 97.9914 246.208 98.176 247.038 98.176C247.869 98.176 248.617 98.053 249.284 97.8069C249.96 97.5608 250.652 97.1969 251.36 96.715L252.575 98.4221C251.816 99.0167 250.95 99.4832 249.976 99.8215C249.012 100.16 248.023 100.329 247.008 100.329C245.439 100.329 244.101 99.9753 242.994 99.2679C241.886 98.5605 241.041 97.5762 240.456 96.3151C239.882 95.0438 239.595 93.5725 239.595 91.9014C239.595 90.2609 239.887 88.8051 240.472 87.5337C241.056 86.2624 241.876 85.2628 242.932 84.5348C243.988 83.8069 245.234 83.4429 246.669 83.4429C248.033 83.4429 249.207 83.7659 250.191 84.4118C251.175 85.0475 251.929 85.96 252.452 87.1493C252.985 88.3283 253.252 89.7381 253.252 91.3785C253.252 91.6553 253.246 91.9167 253.236 92.1628C253.226 92.3986 253.21 92.6088 253.19 92.7933H242.302ZM246.7 85.5652C245.5 85.5652 244.496 85.9907 243.686 86.8417C242.886 87.6927 242.43 89.0101 242.317 90.7941H250.76C250.729 89.0614 250.35 87.7593 249.622 86.8878C248.894 86.0061 247.92 85.5652 246.7 85.5652ZM261.79 99.9753V83.7813H263.989L264.189 86.0266C264.846 85.1961 265.666 84.5605 266.65 84.1196C267.644 83.6685 268.608 83.4429 269.541 83.4429C271.13 83.4429 272.284 83.8633 273.001 84.704C273.729 85.5447 274.093 86.7135 274.093 88.2104V99.9753H271.51V90.1174C271.51 89.0101 271.448 88.1181 271.325 87.4415C271.202 86.7545 270.946 86.2573 270.556 85.9497C270.167 85.6319 269.562 85.473 268.742 85.473C268.106 85.473 267.506 85.6114 266.942 85.8882C266.389 86.165 265.891 86.5136 265.45 86.934C265.02 87.3441 264.661 87.7593 264.374 88.1797V99.9753H261.79Z" fill="url(#paint2_linear_18_10)"/>
<defs>
<linearGradient id="paint0_linear_18_10" x1="91.4726" y1="61.9551" x2="123.383" y2="117.225" gradientUnits="userSpaceOnUse">
<stop offset="0.140625" stop-color="#7E3FE7"/>
<stop offset="1" stop-color="#D93FE7"/>
</linearGradient>
<linearGradient id="paint1_linear_18_10" x1="72.635" y1="62.514" x2="104.545" y2="117.784" gradientUnits="userSpaceOnUse">
<stop offset="0.140625" stop-color="#7E3FE7"/>
<stop offset="1" stop-color="#D93FE7"/>
</linearGradient>
<linearGradient id="paint2_linear_18_10" x1="151" y1="69" x2="277" y2="110" gradientUnits="userSpaceOnUse">
<stop offset="0.53125" stop-color="#945AF2"/>
<stop offset="1" stop-color="#D93FE7"/>
</linearGradient>
</defs>
</svg>
