<svg width="323" height="179" viewBox="0 0 323 179" fill="none" xmlns="http://www.w3.org/2000/svg">
<rect width="323" height="179" fill="#561E43"/>
<line x1="189.5" y1="57" x2="189.5" y2="67" stroke="white" stroke-width="2"/>
<line x1="189.5" y1="113" x2="189.5" y2="123" stroke="white" stroke-width="2"/>
<path d="M189.506 104L211.013 66.75H168L189.506 104Z" fill="white"/>
<circle cx="189.5" cy="108.5" r="4.5" fill="white"/>
<path d="M136 89C144.837 89 152 81.8366 152 73C152 64.1634 144.837 57 136 57H121V89H136Z" fill="white"/>
<path d="M136 123C144.837 123 152 115.837 152 107C152 98.1634 144.837 91 136 91H121V123H136Z" fill="white"/>
<line x1="111" y1="65" x2="121" y2="65" stroke="white" stroke-width="2"/>
<line x1="111" y1="99" x2="121" y2="99" stroke="white" stroke-width="2"/>
<line x1="152" y1="73" x2="162" y2="73" stroke="white" stroke-width="2"/>
<line x1="152" y1="107" x2="162" y2="107" stroke="white" stroke-width="2"/>
<line x1="111" y1="81" x2="121" y2="81" stroke="white" stroke-width="2"/>
<line x1="111" y1="115" x2="121" y2="115" stroke="white" stroke-width="2"/>
</svg>
