<svg width="323" height="179" viewBox="0 0 323 179" fill="none" xmlns="http://www.w3.org/2000/svg">
<rect width="323" height="179" fill="white"/>
<path d="M106 89.5C106 70.9985 91.0015 56 72.5 56C53.9985 56 39 70.9985 39 89.5C39 108.002 53.9985 123 72.5 123" stroke="#4229D8" stroke-width="6"/>
<circle cx="72.5" cy="89.5" r="14.5" fill="#1B1254"/>
<path d="M106 102V123H85" stroke="#1B1254" stroke-width="6"/>
<path d="M148.336 73.9215C150.271 73.9215 151.891 74.1652 153.195 74.6525C154.499 75.1398 155.739 75.8565 156.914 76.8025L154.829 79.232C153.897 78.4437 152.908 77.8847 151.862 77.555C150.83 77.211 149.748 77.039 148.615 77.039C146.996 77.039 145.498 77.426 144.122 78.2C142.746 78.9597 141.635 80.2282 140.789 82.0055C139.958 83.7685 139.542 86.1622 139.542 89.1865C139.542 92.1248 139.937 94.4827 140.725 96.26C141.528 98.0373 142.61 99.3202 143.971 100.108C145.333 100.897 146.852 101.291 148.529 101.291C150.192 101.291 151.554 101.04 152.614 100.538C153.689 100.037 154.621 99.4635 155.409 98.8185L157.344 101.269C156.441 102.144 155.266 102.903 153.818 103.548C152.371 104.179 150.593 104.495 148.486 104.495C146.093 104.495 143.921 103.907 141.972 102.731C140.037 101.556 138.503 99.8362 137.371 97.5715C136.239 95.2925 135.672 92.4975 135.672 89.1865C135.672 85.8612 136.246 83.0662 137.392 80.8015C138.553 78.5368 140.094 76.824 142.015 75.663C143.95 74.502 146.057 73.9215 148.336 73.9215Z" fill="#4229D8"/>
<path d="M167.562 104V101.226H171.088V84.134H167.562V81.3605H173.84L174.506 86.714C175.381 84.8507 176.441 83.4102 177.688 82.3925C178.935 81.3748 180.584 80.866 182.633 80.866C183.264 80.866 183.823 80.9162 184.31 81.0165C184.812 81.1025 185.321 81.2172 185.837 81.3605L184.783 84.5855C184.31 84.4565 183.88 84.3633 183.493 84.306C183.106 84.2343 182.662 84.1985 182.16 84.1985C180.426 84.1985 178.935 84.8148 177.688 86.0475C176.441 87.2802 175.445 89.1435 174.7 91.6375V101.226H179.301V104H167.562ZM182.354 89.0145V84.091L182.719 81.3605H185.837L185.321 89.0145H182.354ZM216.264 81.3605L208.309 104.151C207.779 105.684 207.105 107.089 206.288 108.365C205.485 109.64 204.432 110.694 203.127 111.525C201.837 112.371 200.196 112.894 198.204 113.095L197.645 110.214C199.207 109.956 200.44 109.561 201.343 109.031C202.246 108.501 202.955 107.82 203.471 106.989C204.002 106.157 204.468 105.161 204.869 104H203.665L195.753 81.3605H199.623L206.116 101.248L212.523 81.3605H216.264ZM237.64 80.8875C239.646 80.8875 241.244 81.3748 242.434 82.3495C243.638 83.3242 244.505 84.7002 245.036 86.4775C245.566 88.2405 245.831 90.3045 245.831 92.6695C245.831 94.9485 245.509 96.9838 244.864 98.7755C244.233 100.553 243.273 101.95 241.983 102.968C240.693 103.986 239.066 104.495 237.102 104.495C234.622 104.495 232.63 103.62 231.125 101.871V112.665L227.513 113.116V81.3605H230.588L230.889 84.521C231.72 83.36 232.709 82.4642 233.856 81.8335C235.017 81.2028 236.278 80.8875 237.64 80.8875ZM236.78 83.79C235.533 83.79 234.429 84.1698 233.469 84.9295C232.523 85.6748 231.741 86.5062 231.125 87.4235V98.6465C231.713 99.5208 232.451 100.216 233.34 100.732C234.243 101.234 235.232 101.484 236.307 101.484C238.184 101.484 239.596 100.768 240.542 99.3345C241.488 97.9012 241.961 95.6723 241.961 92.648C241.961 90.67 241.775 89.0288 241.402 87.7245C241.029 86.4058 240.463 85.424 239.704 84.779C238.944 84.1197 237.969 83.79 236.78 83.79ZM275.57 102.86C274.796 103.376 273.857 103.778 272.754 104.065C271.65 104.351 270.568 104.495 269.507 104.495C267.071 104.495 265.193 103.857 263.874 102.581C262.556 101.305 261.896 99.6642 261.896 97.6575V84.1555H256.693V81.3605H261.896V76.222L265.508 75.792V81.3605H273.334L272.904 84.1555H265.508V97.6145C265.508 98.8758 265.838 99.8362 266.497 100.495C267.171 101.155 268.282 101.484 269.83 101.484C270.675 101.484 271.457 101.384 272.173 101.183C272.89 100.983 273.556 100.725 274.173 100.409L275.57 102.86Z" fill="#1B1254"/>
</svg>
