<svg width="323" height="179" viewBox="0 0 323 179" fill="none" xmlns="http://www.w3.org/2000/svg">
<rect width="323" height="179" fill="#E7D424"/>
<path d="M86.7126 78.823C88.1393 78.823 89.3335 79.0027 90.2952 79.362C91.2569 79.7213 92.171 80.2497 93.0376 80.9472L91.5 82.7385C90.813 82.1572 90.0838 81.7451 89.3124 81.502C88.5515 81.2484 87.7536 81.1216 86.9187 81.1216C85.7245 81.1216 84.6202 81.4069 83.6057 81.9776C82.5911 82.5377 81.7721 83.4729 81.1486 84.7834C80.5356 86.0832 80.2292 87.8481 80.2292 90.078C80.2292 92.2444 80.5198 93.9828 81.101 95.2933C81.6928 96.6037 82.4907 97.5495 83.4947 98.1308C84.4986 98.712 85.6189 99.0026 86.8553 99.0026C88.0812 99.0026 89.0852 98.8177 89.8672 98.4478C90.6598 98.0779 91.3467 97.6552 91.928 97.1797L93.3547 98.9868C92.6889 99.6314 91.8223 100.192 90.7549 100.667C89.6875 101.132 88.3771 101.365 86.8236 101.365C85.0588 101.365 83.4577 100.931 82.0204 100.065C80.5938 99.1982 79.463 97.93 78.6281 96.2602C77.7932 94.5799 77.3758 92.5192 77.3758 90.078C77.3758 87.6262 77.7985 85.5654 78.644 83.8957C79.5 82.2259 80.636 80.963 82.0522 80.107C83.4788 79.251 85.0323 78.823 86.7126 78.823ZM99.5038 101V99.8013H101.028V92.4137H99.5038V91.215H102.217L102.505 93.5288C102.883 92.7235 103.342 92.1009 103.881 91.661C104.42 91.2212 105.132 91.0013 106.018 91.0013C106.29 91.0013 106.532 91.023 106.743 91.0663C106.959 91.1035 107.179 91.153 107.402 91.215L106.947 92.6089C106.743 92.5531 106.557 92.5128 106.39 92.4881C106.222 92.4571 106.03 92.4416 105.813 92.4416C105.064 92.4416 104.42 92.708 103.881 93.2408C103.342 93.7735 102.911 94.5789 102.589 95.6568V99.8013H104.577V101H99.5038ZM105.897 94.5231V92.3951L106.055 91.215H107.402L107.179 94.5231H105.897ZM120.553 91.215L117.115 101.065C116.886 101.728 116.595 102.335 116.242 102.886C115.895 103.438 115.439 103.893 114.876 104.252C114.318 104.618 113.609 104.844 112.748 104.931L112.506 103.686C113.181 103.574 113.714 103.404 114.104 103.174C114.495 102.945 114.801 102.651 115.024 102.292C115.253 101.932 115.455 101.502 115.628 101H115.108L111.688 91.215H113.361L116.167 99.8106L118.936 91.215H120.553ZM129.792 91.0106C130.659 91.0106 131.35 91.2212 131.864 91.6425C132.385 92.0637 132.759 92.6584 132.989 93.4266C133.218 94.1886 133.333 95.0807 133.333 96.1029C133.333 97.0879 133.193 97.9675 132.914 98.7419C132.642 99.5101 132.227 100.114 131.669 100.554C131.112 100.994 130.408 101.214 129.56 101.214C128.488 101.214 127.627 100.836 126.976 100.08V104.745L125.415 104.94V91.215H126.744L126.874 92.581C127.234 92.0792 127.661 91.692 128.157 91.4194C128.658 91.1469 129.204 91.0106 129.792 91.0106ZM129.42 92.265C128.881 92.265 128.404 92.4292 127.989 92.7576C127.58 93.0797 127.243 93.439 126.976 93.8355V98.6862C127.23 99.0641 127.55 99.3645 127.934 99.5875C128.324 99.8044 128.751 99.9128 129.216 99.9128C130.028 99.9128 130.638 99.603 131.047 98.9835C131.455 98.364 131.66 97.4007 131.66 96.0936C131.66 95.2387 131.579 94.5293 131.418 93.9656C131.257 93.3956 131.013 92.9713 130.684 92.6925C130.356 92.4075 129.935 92.265 129.42 92.265ZM146.186 100.507C145.852 100.731 145.446 100.904 144.969 101.028C144.492 101.152 144.024 101.214 143.566 101.214C142.512 101.214 141.701 100.938 141.131 100.387C140.561 99.8353 140.276 99.126 140.276 98.2587V92.423H138.027V91.215H140.276V88.9941L141.837 88.8082V91.215H145.22L145.034 92.423H141.837V98.2401C141.837 98.7853 141.98 99.2004 142.265 99.4853C142.556 99.7703 143.036 99.9128 143.705 99.9128C144.071 99.9128 144.408 99.8694 144.718 99.7827C145.028 99.696 145.316 99.5844 145.582 99.4482L146.186 100.507ZM156.373 91.215V99.7641H159.133V101H151.792V99.7641H154.812V92.4509H151.884V91.215H156.373ZM155.128 86.6338C155.474 86.6338 155.75 86.7391 155.955 86.9497C156.165 87.1604 156.27 87.4175 156.27 87.721C156.27 88.037 156.165 88.3033 155.955 88.5202C155.75 88.7308 155.474 88.8361 155.128 88.8361C154.799 88.8361 154.53 88.7308 154.319 88.5202C154.108 88.3033 154.003 88.037 154.003 87.721C154.003 87.4175 154.108 87.1604 154.319 86.9497C154.53 86.7391 154.799 86.6338 155.128 86.6338ZM168.845 99.8663C169.335 99.8663 169.79 99.7858 170.211 99.6247C170.639 99.4636 171.032 99.2592 171.391 99.0114L172.153 100.034C171.726 100.399 171.212 100.687 170.611 100.898C170.01 101.108 169.421 101.214 168.845 101.214C167.873 101.214 167.043 101.006 166.355 100.591C165.673 100.17 165.153 99.5813 164.794 98.8256C164.434 98.0636 164.255 97.1715 164.255 96.1493C164.255 95.1705 164.434 94.2939 164.794 93.5195C165.159 92.739 165.683 92.1257 166.364 91.6796C167.052 91.2336 167.885 91.0106 168.864 91.0106C169.49 91.0106 170.075 91.1066 170.62 91.2986C171.171 91.4845 171.676 91.7664 172.135 92.1442L171.373 93.185C170.958 92.8938 170.54 92.677 170.118 92.5345C169.703 92.3859 169.279 92.3115 168.845 92.3115C168.003 92.3115 167.309 92.6275 166.764 93.2593C166.219 93.8912 165.946 94.8546 165.946 96.1493C165.946 97.0166 166.07 97.7259 166.318 98.2773C166.572 98.8225 166.916 99.2251 167.349 99.4853C167.789 99.7393 168.288 99.8663 168.845 99.8663ZM190.14 89.9828C190.14 88.0806 189.94 86.5588 189.538 85.4175C189.136 84.2761 188.608 83.4201 187.953 82.8494C187.298 82.2788 186.579 81.8983 185.797 81.7081C185.025 81.5179 184.265 81.4227 183.514 81.4227H180.946V98.7966H183.546C184.328 98.7966 185.105 98.675 185.876 98.432C186.658 98.1783 187.372 97.7345 188.016 97.1004C188.661 96.4558 189.173 95.5628 189.554 94.4214C189.945 93.2695 190.14 91.79 190.14 89.9828ZM193.073 89.9828C193.073 91.8005 192.877 93.354 192.486 94.6433C192.106 95.9221 191.583 96.9789 190.917 97.8137C190.251 98.6486 189.49 99.2985 188.634 99.7635C187.789 100.218 186.896 100.54 185.955 100.731C185.025 100.91 184.111 101 183.213 101H178.204V79.1718H182.864C184.143 79.1718 185.385 79.3144 186.59 79.5998C187.805 79.8851 188.899 80.4135 189.871 81.185C190.854 81.9459 191.63 83.0344 192.201 84.4505C192.782 85.8666 193.073 87.7107 193.073 89.9828ZM204.558 91.215V99.7641H207.318V101H199.976V99.7641H202.997V92.4509H200.069V91.215H204.558ZM203.312 86.6338C203.659 86.6338 203.935 86.7391 204.139 86.9497C204.35 87.1604 204.455 87.4175 204.455 87.721C204.455 88.037 204.35 88.3033 204.139 88.5202C203.935 88.7308 203.659 88.8361 203.312 88.8361C202.984 88.8361 202.715 88.7308 202.504 88.5202C202.293 88.3033 202.188 88.037 202.188 87.721C202.188 87.4175 202.293 87.1604 202.504 86.9497C202.715 86.7391 202.984 86.6338 203.312 86.6338ZM219.614 98.8627C219.614 99.253 219.679 99.538 219.809 99.7176C219.939 99.8973 220.14 100.03 220.413 100.117L220.032 101.214C219.61 101.158 219.242 101.025 218.926 100.814C218.61 100.597 218.381 100.272 218.238 99.8384C217.885 100.291 217.445 100.634 216.919 100.87C216.392 101.099 215.81 101.214 215.172 101.214C214.193 101.214 213.422 100.938 212.858 100.387C212.294 99.8353 212.012 99.1043 212.012 98.1937C212.012 97.1839 212.406 96.4095 213.192 95.8705C213.979 95.3316 215.116 95.0621 216.603 95.0621H218.043V94.2444C218.043 93.5381 217.836 93.0394 217.42 92.7483C217.012 92.4509 216.442 92.3022 215.711 92.3022C215.389 92.3022 215.011 92.3425 214.577 92.423C214.143 92.4974 213.673 92.6244 213.165 92.804L212.756 91.6239C213.357 91.4008 213.92 91.2429 214.447 91.1499C214.973 91.057 215.475 91.0106 215.952 91.0106C217.173 91.0106 218.086 91.2955 218.694 91.8655C219.307 92.4292 219.614 93.1974 219.614 94.17V98.8627ZM215.571 100.024C216.054 100.024 216.516 99.9035 216.956 99.6619C217.396 99.4141 217.758 99.0734 218.043 98.6397V96.1214H216.631C215.553 96.1214 214.791 96.3073 214.345 96.679C213.905 97.0507 213.685 97.5494 213.685 98.1751C213.685 98.7822 213.84 99.2437 214.15 99.5597C214.465 99.8694 214.939 100.024 215.571 100.024ZM225.702 101V99.8013H227.226V92.4137H225.702V91.215H228.416L228.704 93.5288C229.082 92.7235 229.54 92.1009 230.079 91.661C230.618 91.2212 231.33 91.0013 232.216 91.0013C232.489 91.0013 232.73 91.023 232.941 91.0663C233.158 91.1035 233.378 91.153 233.601 91.215L233.145 92.6089C232.941 92.5531 232.755 92.5128 232.588 92.4881C232.421 92.4571 232.229 92.4416 232.012 92.4416C231.262 92.4416 230.618 92.708 230.079 93.2408C229.54 93.7735 229.109 94.5789 228.787 95.6568V99.8013H230.776V101H225.702ZM232.095 94.5231V92.3951L232.253 91.215H233.601L233.378 94.5231H232.095ZM246.752 91.215L243.313 101.065C243.084 101.728 242.793 102.335 242.44 102.886C242.093 103.438 241.638 103.893 241.074 104.252C240.516 104.618 239.807 104.844 238.946 104.931L238.704 103.686C239.38 103.574 239.912 103.404 240.303 103.174C240.693 102.945 241 102.651 241.223 102.292C241.452 101.932 241.653 101.502 241.827 101H241.306L237.887 91.215H239.559L242.366 99.8106L245.135 91.215H246.752Z" fill="black"/>
</svg>
