<svg width="323" height="179" viewBox="0 0 323 179" fill="none" xmlns="http://www.w3.org/2000/svg">
<rect width="323" height="179" fill="white"/>
<path d="M212.714 74C212.714 102.009 190.009 124.714 162 124.714C133.991 124.714 111.286 102.009 111.286 74C111.286 45.9913 133.991 23.2857 162 23.2857C190.009 23.2857 212.714 45.9913 212.714 74Z" fill="black" stroke="black" stroke-width="8.57143"/>
<line y1="-0.714286" x2="51.4286" y2="-0.714286" transform="matrix(-1 0 0 1 184.143 63.2857)" stroke="white" stroke-width="1.42857"/>
<line y1="-0.714286" x2="51.4286" y2="-0.714286" transform="matrix(-1 0 0 1 184.143 80.4286)" stroke="white" stroke-width="1.42857"/>
<line y1="-0.714286" x2="51.4286" y2="-0.714286" transform="matrix(-1 0 0 1 184.143 86.1429)" stroke="white" stroke-width="1.42857"/>
<line y1="-0.714286" x2="51.4286" y2="-0.714286" transform="matrix(-1 0 0 1 184.143 69)" stroke="white" stroke-width="1.42857"/>
<line y1="-0.714286" x2="51.4286" y2="-0.714286" transform="matrix(-1 0 0 1 184.143 74.7143)" stroke="white" stroke-width="1.42857"/>
<line y1="-0.714286" x2="2.85714" y2="-0.714286" transform="matrix(-1 0 0 1 189.857 63.2857)" stroke="white" stroke-width="1.42857"/>
<line y1="-0.714286" x2="2.85714" y2="-0.714286" transform="matrix(-1 0 0 1 189.857 80.4286)" stroke="white" stroke-width="1.42857"/>
<line y1="-0.714286" x2="2.85714" y2="-0.714286" transform="matrix(-1 0 0 1 192.714 86.1429)" stroke="white" stroke-width="1.42857"/>
<line y1="-0.714286" x2="2.85714" y2="-0.714286" transform="matrix(-1 0 0 1 188.429 86.1429)" stroke="white" stroke-width="1.42857"/>
<line y1="-0.714286" x2="2.85714" y2="-0.714286" transform="matrix(-1 0 0 1 191.286 69)" stroke="white" stroke-width="1.42857"/>
<line y1="-0.714286" x2="1.42857" y2="-0.714286" transform="matrix(-1 0 0 1 187 69)" stroke="white" stroke-width="1.42857"/>
<line y1="-0.714286" x2="2.85714" y2="-0.714286" transform="matrix(-1 0 0 1 188.429 74.7143)" stroke="white" stroke-width="1.42857"/>
<line y1="-0.714286" x2="1.42857" y2="-0.714286" transform="matrix(-1 0 0 1 191.286 74.7143)" stroke="white" stroke-width="1.42857"/>
<line x1="133.429" y1="61.8571" x2="133.429" y2="86.1429" stroke="white" stroke-width="1.42857"/>
<path d="M100.679 144.723C100.679 146.393 100.45 147.875 99.9918 149.169C99.542 150.454 98.8633 151.462 97.9556 152.193C97.0479 152.916 95.9194 153.277 94.5699 153.277C93.2285 153.277 92.0999 152.924 91.1842 152.217C90.2766 151.502 89.5938 150.506 89.136 149.229C88.6862 147.952 88.4613 146.458 88.4613 144.747C88.4613 143.068 88.6862 141.582 89.136 140.289C89.5938 138.995 90.2766 137.983 91.1842 137.252C92.0999 136.513 93.2285 136.144 94.5699 136.144C95.9194 136.144 97.0479 136.501 97.9556 137.216C98.8633 137.931 99.542 138.931 99.9918 140.216C100.45 141.502 100.679 143.004 100.679 144.723ZM98.4857 144.723C98.4857 142.514 98.1805 140.823 97.57 139.65C96.9676 138.477 95.9676 137.891 94.5699 137.891C93.1723 137.891 92.1682 138.481 91.5578 139.662C90.9553 140.843 90.6541 142.538 90.6541 144.747C90.6541 146.956 90.9674 148.638 91.5939 149.795C92.2204 150.944 93.2124 151.518 94.5699 151.518C95.9676 151.518 96.9676 150.94 97.57 149.783C98.1805 148.618 98.4857 146.931 98.4857 144.723ZM106.742 153V151.446H108.718V141.867H106.742V140.313H110.26L110.633 143.313C111.123 142.269 111.718 141.461 112.417 140.891C113.115 140.321 114.039 140.036 115.188 140.036C115.541 140.036 115.854 140.064 116.128 140.12C116.409 140.168 116.694 140.232 116.983 140.313L116.393 142.12C116.128 142.048 115.887 141.996 115.67 141.963C115.453 141.923 115.204 141.903 114.923 141.903C113.951 141.903 113.115 142.249 112.417 142.939C111.718 143.63 111.16 144.674 110.742 146.072V151.446H113.32V153H106.742ZM115.031 144.602V141.843L115.236 140.313H116.983L116.694 144.602H115.031ZM129.215 151.53C129.85 151.53 130.44 151.426 130.986 151.217C131.54 151.008 132.051 150.743 132.516 150.422L133.504 151.747C132.95 152.221 132.283 152.594 131.504 152.867C130.725 153.141 129.962 153.277 129.215 153.277C127.954 153.277 126.878 153.008 125.986 152.47C125.102 151.924 124.428 151.161 123.962 150.181C123.496 149.193 123.263 148.036 123.263 146.711C123.263 145.441 123.496 144.305 123.962 143.301C124.436 142.289 125.114 141.494 125.998 140.915C126.89 140.337 127.97 140.048 129.239 140.048C130.05 140.048 130.809 140.172 131.516 140.421C132.231 140.662 132.886 141.028 133.48 141.518L132.492 142.867C131.954 142.49 131.412 142.208 130.866 142.024C130.328 141.831 129.777 141.735 129.215 141.735C128.123 141.735 127.223 142.144 126.516 142.963C125.809 143.783 125.456 145.032 125.456 146.711C125.456 147.835 125.617 148.755 125.938 149.47C126.267 150.177 126.713 150.699 127.275 151.036C127.846 151.365 128.492 151.53 129.215 151.53ZM142.363 135.011V142.048C142.861 141.381 143.471 140.883 144.194 140.554C144.925 140.216 145.664 140.048 146.411 140.048C147.648 140.048 148.552 140.377 149.122 141.036C149.692 141.694 149.978 142.61 149.978 143.783V153H147.953V143.831C147.953 143.068 147.777 142.514 147.423 142.168C147.07 141.815 146.516 141.638 145.76 141.638C145.279 141.638 144.821 141.747 144.387 141.963C143.953 142.18 143.564 142.449 143.218 142.771C142.873 143.092 142.588 143.421 142.363 143.759V153H140.339V135.228L142.363 135.011ZM158.788 147.373C158.828 148.353 159.017 149.156 159.354 149.783C159.691 150.402 160.137 150.859 160.691 151.157C161.246 151.446 161.848 151.59 162.499 151.59C163.149 151.59 163.736 151.494 164.258 151.301C164.788 151.108 165.33 150.823 165.884 150.446L166.836 151.783C166.242 152.249 165.563 152.614 164.8 152.88C164.045 153.145 163.27 153.277 162.475 153.277C161.246 153.277 160.197 153 159.33 152.446C158.462 151.892 157.8 151.12 157.342 150.132C156.892 149.136 156.667 147.984 156.667 146.674C156.667 145.389 156.896 144.249 157.354 143.253C157.812 142.257 158.454 141.473 159.282 140.903C160.109 140.333 161.085 140.048 162.21 140.048C163.278 140.048 164.198 140.301 164.969 140.807C165.74 141.305 166.33 142.02 166.74 142.951C167.158 143.875 167.366 144.98 167.366 146.265C167.366 146.482 167.362 146.687 167.354 146.879C167.346 147.064 167.334 147.229 167.318 147.373H158.788ZM162.234 141.71C161.294 141.71 160.507 142.044 159.872 142.71C159.246 143.377 158.888 144.409 158.8 145.807H165.414C165.39 144.449 165.093 143.429 164.523 142.747C163.953 142.056 163.189 141.71 162.234 141.71ZM178.369 151.602C179.341 151.602 180.108 151.422 180.671 151.06C181.241 150.691 181.526 150.201 181.526 149.59C181.526 149.205 181.454 148.871 181.309 148.59C181.173 148.309 180.888 148.056 180.454 147.831C180.02 147.606 179.353 147.381 178.454 147.156C177.578 146.94 176.815 146.691 176.165 146.409C175.522 146.12 175.02 145.747 174.658 145.289C174.305 144.831 174.128 144.237 174.128 143.506C174.128 142.791 174.329 142.176 174.731 141.662C175.14 141.14 175.707 140.743 176.43 140.469C177.152 140.188 177.992 140.048 178.948 140.048C179.968 140.048 180.855 140.184 181.61 140.457C182.374 140.722 183.02 141.052 183.55 141.445L182.659 142.819C182.177 142.49 181.647 142.22 181.068 142.012C180.49 141.795 179.791 141.686 178.972 141.686C177.976 141.686 177.269 141.843 176.851 142.156C176.434 142.461 176.225 142.859 176.225 143.349C176.225 143.719 176.325 144.028 176.526 144.277C176.735 144.518 177.084 144.739 177.574 144.939C178.064 145.132 178.739 145.345 179.598 145.578C180.426 145.795 181.145 146.056 181.755 146.361C182.374 146.666 182.856 147.068 183.201 147.566C183.546 148.064 183.719 148.707 183.719 149.494C183.719 150.393 183.462 151.124 182.948 151.687C182.434 152.241 181.767 152.647 180.948 152.904C180.137 153.153 179.277 153.277 178.369 153.277C177.221 153.277 176.241 153.112 175.43 152.783C174.626 152.446 173.952 152.04 173.405 151.566L174.562 150.229C175.06 150.638 175.63 150.972 176.273 151.229C176.924 151.478 177.622 151.602 178.369 151.602ZM200.987 152.361C200.554 152.651 200.027 152.875 199.409 153.036C198.79 153.197 198.184 153.277 197.59 153.277C196.224 153.277 195.172 152.92 194.433 152.205C193.694 151.49 193.324 150.57 193.324 149.446V141.879H190.409V140.313H193.324V137.433L195.349 137.192V140.313H199.734L199.493 141.879H195.349V149.422C195.349 150.128 195.533 150.667 195.903 151.036C196.28 151.406 196.903 151.59 197.77 151.59C198.244 151.59 198.682 151.534 199.084 151.422C199.485 151.309 199.859 151.165 200.204 150.988L200.987 152.361ZM207.894 153V151.446H209.87V141.867H207.894V140.313H211.412L211.786 143.313C212.276 142.269 212.87 141.461 213.569 140.891C214.268 140.321 215.191 140.036 216.34 140.036C216.693 140.036 217.007 140.064 217.28 140.12C217.561 140.168 217.846 140.232 218.135 140.313L217.545 142.12C217.28 142.048 217.039 141.996 216.822 141.963C216.605 141.923 216.356 141.903 216.075 141.903C215.103 141.903 214.268 142.249 213.569 142.939C212.87 143.63 212.312 144.674 211.894 146.072V151.446H214.472V153H207.894ZM216.183 144.602V141.843L216.388 140.313H218.135L217.846 144.602H216.183ZM233.717 150.229C233.717 150.735 233.801 151.104 233.97 151.337C234.138 151.57 234.4 151.743 234.753 151.855L234.259 153.277C233.713 153.205 233.235 153.032 232.825 152.759C232.416 152.478 232.118 152.056 231.934 151.494C231.476 152.08 230.905 152.526 230.223 152.831C229.54 153.129 228.785 153.277 227.958 153.277C226.688 153.277 225.688 152.92 224.957 152.205C224.226 151.49 223.861 150.542 223.861 149.361C223.861 148.052 224.371 147.048 225.391 146.349C226.411 145.65 227.885 145.301 229.813 145.301H231.681V144.241C231.681 143.325 231.411 142.678 230.873 142.301C230.343 141.915 229.604 141.722 228.656 141.722C228.239 141.722 227.749 141.775 227.186 141.879C226.624 141.975 226.014 142.14 225.355 142.373L224.825 140.843C225.604 140.554 226.335 140.349 227.018 140.228C227.7 140.108 228.351 140.048 228.97 140.048C230.552 140.048 231.737 140.417 232.524 141.156C233.319 141.887 233.717 142.883 233.717 144.144V150.229ZM228.476 151.735C229.102 151.735 229.701 151.578 230.271 151.265C230.841 150.944 231.311 150.502 231.681 149.94V146.674H229.849C228.451 146.674 227.464 146.915 226.885 147.397C226.315 147.879 226.03 148.526 226.03 149.337C226.03 150.124 226.231 150.723 226.632 151.132C227.042 151.534 227.656 151.735 228.476 151.735Z" fill="black"/>
</svg>
