<svg width="323" height="179" viewBox="0 0 323 179" fill="none" xmlns="http://www.w3.org/2000/svg">
<rect width="323" height="179" fill="white"/>
<path d="M149.599 67.3873L161.095 47.3248L172.59 67.3873H149.599Z" fill="black"/>
<path fill-rule="evenodd" clip-rule="evenodd" d="M137.97 79.4688H183.951L189.699 89.5L183.951 99.5313H137.97L132.222 89.5L137.97 79.4688ZM161.232 81.6898L167.958 85.6027V93.4284L161.232 97.3413L154.506 93.4284V85.6027L161.232 81.6898Z" fill="black"/>
<path d="M124.319 103.294L120.727 109.563H127.911L124.319 103.294Z" fill="black"/>
<path d="M201.463 109.563L197.871 103.294L194.279 109.563H201.463Z" fill="black"/>
<path d="M214.189 89.5C214.189 59.9528 190.418 36 161.095 36C131.771 36 108 59.9528 108 89.5M214.189 89.5H205.774L194.279 109.563M214.189 89.5C214.189 99.2447 211.604 108.381 207.086 116.25C197.906 132.241 180.747 143 161.095 143C142.077 143 125.394 132.925 116.017 117.782M108 89.5H116.415L124.319 103.294M108 89.5C108 99.2447 110.586 108.381 115.103 116.25C115.399 116.766 115.704 117.277 116.017 117.782M194.279 109.563L197.871 103.294L201.463 109.563M194.279 109.563H201.463M120.727 109.563L116.017 117.782M120.727 109.563L124.319 103.294M120.727 109.563H201.463M120.727 109.563H127.911L124.319 103.294M201.463 109.563L206.172 117.782M167.958 85.6027L161.232 81.6898L154.506 85.6027M167.958 85.6027V93.4284L161.232 97.3413M167.958 85.6027L161.232 89.5156M161.232 97.3413L154.506 93.4284V85.6027M161.232 97.3413V89.5156M154.506 85.6027L161.232 89.5156M137.97 79.4688H183.951L189.699 89.5L183.951 99.5313H137.97L132.222 89.5L137.97 79.4688ZM161.095 47.3248L149.599 67.3873H172.59L161.095 47.3248Z" stroke="black" stroke-width="1.74"/>
<path d="M156.735 119.569H165.648M156.735 119.569H152.569M156.735 119.569V128.453V132.896M165.648 119.569H169.815M165.648 119.569V124.011V126.232V127.343M165.648 132.896V130.674" stroke="black" stroke-width="1.74" stroke-linecap="round" stroke-linejoin="round"/>
</svg>
