<svg width="323" height="179" viewBox="0 0 323 179" fill="none" xmlns="http://www.w3.org/2000/svg">
<rect width="323" height="179" fill="#4B154F"/>
<path d="M136.262 56.5655C142.768 56.5655 148.042 61.8396 148.042 68.3456C148.042 74.8515 142.768 80.1257 136.262 80.1257" stroke="#D93FE7" stroke-width="3.14136" stroke-linecap="round"/>
<path d="M184.953 56.5655C178.447 56.5655 173.173 61.8396 173.173 68.3456C173.173 74.8515 178.447 80.1257 184.953 80.1257" stroke="#D93FE7" stroke-width="3.14136" stroke-linecap="round"/>
<path d="M148.827 92.6911C148.827 86.1851 154.101 80.911 160.607 80.911C167.113 80.911 172.387 86.1851 172.387 92.6911" stroke="#D93FE7" stroke-width="3.14136" stroke-linecap="round"/>
<path d="M148.827 44C148.827 50.506 154.101 55.7801 160.607 55.7801C167.113 55.7801 172.387 50.506 172.387 44" stroke="#D93FE7" stroke-width="3.14136" stroke-linecap="round"/>
<rect x="154.571" y="61.2775" width="12.5654" height="12.5654" rx="3.14136" fill="#E918FB"/>
<path d="M99.1199 123.084C99.1199 124.034 98.8824 124.88 98.4073 125.621C97.9323 126.353 97.2438 126.929 96.342 127.348C95.4402 127.758 94.3411 127.964 93.0448 127.964C91.829 127.964 90.7259 127.778 89.7355 127.408C88.7532 127.038 87.9118 126.514 87.2113 125.838L88.4553 124.437C89.035 124.976 89.6993 125.407 90.4481 125.729C91.1969 126.043 92.0746 126.2 93.081 126.2C93.7574 126.2 94.3895 126.092 94.9772 125.874C95.565 125.649 96.0401 125.311 96.4024 124.86C96.7647 124.401 96.9459 123.821 96.9459 123.12C96.9459 122.581 96.8412 122.122 96.6319 121.744C96.4225 121.365 96.0522 121.031 95.5207 120.741C94.9893 120.443 94.2486 120.153 93.2984 119.872C92.2034 119.549 91.2533 119.187 90.4481 118.785C89.651 118.374 89.031 117.871 88.5881 117.275C88.1533 116.679 87.9359 115.942 87.9359 115.065C87.9359 114.235 88.1654 113.499 88.6244 112.854C89.0833 112.21 89.7154 111.707 90.5206 111.345C91.3338 110.974 92.2678 110.789 93.3226 110.789C94.474 110.789 95.4724 110.954 96.3179 111.284C97.1714 111.606 97.9443 112.073 98.6368 112.685L97.4049 114.05C96.809 113.519 96.1689 113.136 95.4845 112.903C94.8001 112.661 94.1036 112.54 93.3951 112.54C92.7912 112.54 92.2356 112.633 91.7283 112.818C91.2291 112.995 90.8265 113.265 90.5206 113.627C90.2226 113.982 90.0737 114.437 90.0737 114.992C90.0737 115.467 90.2025 115.878 90.4602 116.224C90.7178 116.57 91.1526 116.888 91.7646 117.178C92.3765 117.46 93.2099 117.758 94.2647 118.072C95.1262 118.322 95.9233 118.636 96.656 119.014C97.3968 119.384 97.9926 119.892 98.4436 120.536C98.8945 121.172 99.1199 122.021 99.1199 123.084ZM107.082 122.046C107.122 123.028 107.311 123.833 107.649 124.461C107.988 125.081 108.434 125.54 108.99 125.838C109.546 126.128 110.15 126.273 110.802 126.273C111.454 126.273 112.042 126.176 112.565 125.983C113.096 125.79 113.64 125.504 114.196 125.125L115.15 126.466C114.554 126.933 113.873 127.299 113.109 127.565C112.352 127.831 111.575 127.964 110.778 127.964C109.546 127.964 108.495 127.686 107.625 127.13C106.756 126.575 106.091 125.802 105.632 124.811C105.182 123.813 104.956 122.657 104.956 121.345C104.956 120.057 105.186 118.913 105.645 117.915C106.103 116.917 106.748 116.131 107.577 115.56C108.406 114.988 109.385 114.702 110.512 114.702C111.583 114.702 112.505 114.956 113.278 115.463C114.051 115.962 114.642 116.679 115.053 117.613C115.472 118.539 115.681 119.646 115.681 120.934C115.681 121.152 115.677 121.357 115.669 121.55C115.661 121.736 115.649 121.901 115.633 122.046H107.082ZM110.536 116.369C109.594 116.369 108.805 116.703 108.169 117.371C107.541 118.04 107.182 119.074 107.094 120.475H113.725C113.7 119.115 113.402 118.092 112.831 117.408C112.259 116.715 111.494 116.369 110.536 116.369ZM122.508 127.686V126.128H124.488V116.526H122.508V114.968H126.034L126.409 117.975C126.9 116.929 127.496 116.119 128.196 115.548C128.897 114.976 129.823 114.69 130.974 114.69C131.328 114.69 131.642 114.718 131.916 114.775C132.198 114.823 132.484 114.887 132.774 114.968L132.182 116.78C131.916 116.707 131.675 116.655 131.457 116.623C131.24 116.582 130.99 116.562 130.708 116.562C129.734 116.562 128.897 116.908 128.196 117.601C127.496 118.293 126.936 119.34 126.517 120.741V126.128H129.102V127.686H122.508ZM130.817 119.268V116.502L131.022 114.968H132.774L132.484 119.268H130.817ZM149.891 114.968L145.265 127.686H142.91L138.32 114.968H140.47L144.154 125.838L147.789 114.968H149.891ZM162.623 114.968V126.08H166.21V127.686H156.669V126.08H160.594V116.574H156.79V114.968H162.623ZM161.005 109.014C161.456 109.014 161.814 109.151 162.08 109.424C162.353 109.698 162.49 110.032 162.49 110.427C162.49 110.837 162.353 111.184 162.08 111.465C161.814 111.739 161.456 111.876 161.005 111.876C160.578 111.876 160.228 111.739 159.954 111.465C159.68 111.184 159.543 110.837 159.543 110.427C159.543 110.032 159.68 109.698 159.954 109.424C160.228 109.151 160.578 109.014 161.005 109.014ZM178.834 126.212C179.47 126.212 180.062 126.108 180.61 125.898C181.165 125.689 181.676 125.423 182.143 125.101L183.134 126.43C182.578 126.905 181.91 127.279 181.129 127.553C180.348 127.827 179.583 127.964 178.834 127.964C177.57 127.964 176.491 127.694 175.597 127.154C174.712 126.607 174.035 125.842 173.568 124.86C173.101 123.869 172.868 122.71 172.868 121.381C172.868 120.109 173.101 118.97 173.568 117.963C174.043 116.949 174.724 116.152 175.609 115.572C176.503 114.992 177.586 114.702 178.858 114.702C179.671 114.702 180.432 114.827 181.141 115.077C181.858 115.318 182.514 115.685 183.11 116.176L182.119 117.528C181.58 117.15 181.036 116.868 180.489 116.683C179.949 116.49 179.398 116.393 178.834 116.393C177.739 116.393 176.837 116.804 176.129 117.625C175.42 118.446 175.066 119.698 175.066 121.381C175.066 122.509 175.227 123.43 175.549 124.147C175.879 124.856 176.326 125.379 176.89 125.717C177.461 126.047 178.109 126.212 178.834 126.212ZM196.422 114.968V126.08H200.009V127.686H190.468V126.08H194.393V116.574H190.588V114.968H196.422ZM194.804 109.014C195.254 109.014 195.613 109.151 195.878 109.424C196.152 109.698 196.289 110.032 196.289 110.427C196.289 110.837 196.152 111.184 195.878 111.465C195.613 111.739 195.254 111.876 194.804 111.876C194.377 111.876 194.027 111.739 193.753 111.465C193.479 111.184 193.342 110.837 193.342 110.427C193.342 110.032 193.479 109.698 193.753 109.424C194.027 109.151 194.377 109.014 194.804 109.014ZM214.396 109.593C215.081 109.593 215.701 109.654 216.256 109.775C216.812 109.895 217.339 110.064 217.838 110.282L217.186 111.792C216.776 111.614 216.341 111.482 215.882 111.393C215.423 111.304 214.948 111.26 214.457 111.26C213.571 111.26 212.903 111.433 212.452 111.779C212.009 112.126 211.787 112.657 211.787 113.374V115.958H216.099L215.882 117.553H211.787V127.686H209.758V117.553H206.727V115.958H209.758V113.422C209.758 112.633 209.96 111.953 210.362 111.381C210.773 110.809 211.328 110.37 212.029 110.064C212.73 109.75 213.519 109.593 214.396 109.593ZM234.363 114.968L229.895 127.77C229.597 128.632 229.218 129.421 228.759 130.138C228.308 130.854 227.717 131.446 226.984 131.913C226.259 132.388 225.337 132.682 224.218 132.795L223.904 131.176C224.782 131.031 225.474 130.81 225.981 130.512C226.489 130.214 226.887 129.832 227.177 129.365C227.475 128.898 227.737 128.338 227.962 127.686H227.286L222.841 114.968H225.015L228.663 126.14L232.262 114.968H234.363Z" fill="#D93FE7"/>
</svg>
