<svg width="323" height="179" viewBox="0 0 323 179" fill="none" xmlns="http://www.w3.org/2000/svg">
<rect width="323" height="179" fill="white"/>
<path d="M192.233 98.7197H130.514L145.944 83.2898M130.514 37H192.233L176.803 52.4299" stroke="url(#paint0_linear_8_34)" stroke-width="5.94889" stroke-linejoin="round"/>
<path d="M161 83.5L158.896 85.6036C160.058 86.7655 161.942 86.7655 163.104 85.6036L161 83.5ZM158.025 52V67.75H163.975V52H158.025ZM158.025 67.75V83.5H163.975V67.75H158.025ZM163.104 85.6036L178.854 69.8536L174.646 65.6464L158.896 81.3964L163.104 85.6036ZM163.104 81.3964L147.354 65.6464L143.146 69.8536L158.896 85.6036L163.104 81.3964Z" fill="#6E25E6"/>
<path d="M107.225 132.81H115.912L115.659 134.617H104.924V132.919L113.695 119.81H105.792V118.026H115.936V119.737L107.225 132.81ZM124.072 128.991C124.112 129.971 124.301 130.774 124.638 131.4C124.976 132.019 125.421 132.477 125.976 132.774C126.53 133.063 127.132 133.208 127.783 133.208C128.434 133.208 129.02 133.111 129.542 132.919C130.072 132.726 130.614 132.441 131.169 132.063L132.12 133.401C131.526 133.866 130.847 134.232 130.084 134.497C129.329 134.762 128.554 134.895 127.759 134.895C126.53 134.895 125.482 134.617 124.614 134.063C123.747 133.509 123.084 132.738 122.626 131.75C122.176 130.754 121.951 129.601 121.951 128.292C121.951 127.007 122.18 125.866 122.638 124.87C123.096 123.874 123.739 123.091 124.566 122.521C125.393 121.95 126.369 121.665 127.494 121.665C128.562 121.665 129.482 121.918 130.253 122.424C131.024 122.922 131.614 123.637 132.024 124.569C132.442 125.493 132.651 126.597 132.651 127.882C132.651 128.099 132.647 128.304 132.639 128.497C132.631 128.682 132.618 128.846 132.602 128.991H124.072ZM127.518 123.328C126.578 123.328 125.791 123.661 125.156 124.328C124.53 124.995 124.172 126.027 124.084 127.424H130.699C130.675 126.067 130.377 125.047 129.807 124.364C129.237 123.673 128.474 123.328 127.518 123.328ZM139.34 134.617V121.93H141.063L141.22 123.689C141.734 123.039 142.376 122.541 143.148 122.195C143.927 121.842 144.682 121.665 145.413 121.665C146.658 121.665 147.561 121.995 148.124 122.653C148.694 123.312 148.979 124.228 148.979 125.4V134.617H146.955V126.894C146.955 126.027 146.907 125.328 146.81 124.798C146.714 124.26 146.513 123.87 146.208 123.629C145.903 123.38 145.429 123.256 144.786 123.256C144.288 123.256 143.818 123.364 143.377 123.581C142.943 123.798 142.553 124.071 142.208 124.4C141.87 124.722 141.589 125.047 141.364 125.376V134.617H139.34ZM161.874 121.665C162.998 121.665 163.894 121.938 164.561 122.484C165.235 123.031 165.721 123.802 166.019 124.798C166.316 125.786 166.464 126.942 166.464 128.268C166.464 129.545 166.284 130.686 165.922 131.69C165.569 132.686 165.031 133.469 164.308 134.039C163.585 134.609 162.673 134.895 161.573 134.895C160.183 134.895 159.067 134.405 158.223 133.425V139.473L156.199 139.726V121.93H157.922L158.091 123.701C158.556 123.051 159.111 122.549 159.753 122.195C160.404 121.842 161.111 121.665 161.874 121.665ZM161.392 123.292C160.693 123.292 160.075 123.505 159.536 123.93C159.006 124.348 158.569 124.814 158.223 125.328V131.617C158.552 132.107 158.966 132.497 159.464 132.786C159.97 133.067 160.524 133.208 161.127 133.208C162.179 133.208 162.97 132.806 163.5 132.003C164.031 131.2 164.296 129.951 164.296 128.256C164.296 127.147 164.191 126.228 163.982 125.497C163.774 124.758 163.456 124.207 163.031 123.846C162.605 123.476 162.059 123.292 161.392 123.292ZM175.082 121.93V130.919C175.082 131.754 175.254 132.356 175.6 132.726C175.945 133.095 176.483 133.28 177.214 133.28C177.913 133.28 178.572 133.083 179.19 132.69C179.817 132.288 180.303 131.814 180.648 131.268V121.93H182.672V134.617H180.949L180.781 132.907C180.283 133.549 179.668 134.043 178.937 134.389C178.206 134.726 177.467 134.895 176.72 134.895C175.491 134.895 174.572 134.569 173.961 133.919C173.359 133.26 173.058 132.34 173.058 131.16V121.93H175.082ZM194.856 116.822V131.485C194.856 132.111 195.049 132.557 195.435 132.822C195.828 133.079 196.334 133.208 196.953 133.208C197.338 133.208 197.704 133.168 198.049 133.087C198.395 133.007 198.74 132.899 199.085 132.762L199.628 134.244C199.282 134.413 198.852 134.561 198.338 134.69C197.832 134.826 197.258 134.895 196.615 134.895C195.491 134.895 194.579 134.585 193.88 133.967C193.182 133.34 192.832 132.477 192.832 131.376V118.424H188.94V116.822H194.856ZM211.715 116.822V131.485C211.715 132.111 211.908 132.557 212.293 132.822C212.687 133.079 213.193 133.208 213.811 133.208C214.197 133.208 214.562 133.168 214.908 133.087C215.253 133.007 215.599 132.899 215.944 132.762L216.486 134.244C216.141 134.413 215.711 134.561 215.197 134.69C214.691 134.826 214.117 134.895 213.474 134.895C212.35 134.895 211.438 134.585 210.739 133.967C210.04 133.34 209.691 132.477 209.691 131.376V118.424H205.799V116.822H211.715Z" fill="#4E0F74"/>
<defs>
<linearGradient id="paint0_linear_8_34" x1="192.233" y1="37" x2="130.514" y2="98.7197" gradientUnits="userSpaceOnUse">
<stop stop-color="#830ECB"/>
<stop offset="0.510417" stop-color="#6E25E6"/>
<stop offset="1" stop-color="#4E0F74"/>
</linearGradient>
</defs>
</svg>
